PathFileType	4	(X/Y/Z)	output.trc
DataRate	CameraRate	NumFrames	NumMarkers	Units	OrigDataRate	OrigDataStartFrame	OrigNumFrames
30	30	12	17	m	30	273	1089
Frame#	Time	root		right_hip		right_knee		right_ankle		left_hip		left_knee		left_ankle		torso		thorax		neck		head		left_shoulder		left_elbow		left_wrist		right_shoulder		right_elbow		right_wrist
		X1	Y1	Z1	X2	Y2	Z2	X3	Y3	Z3	X4	Y4	Z4	X5	Y5	Z5	X6	Y6	Z6	X7	Y7	Z7	X8	Y8	Z8	X9	Y9	Z9	X10	Y10	Z10	X11	Y11	Z11	X12	Y12	Z12	X13	Y13	Z13	X14	Y14	Z14	X15	Y15	Z15	X16	Y16	Z16	X17	Y17	Z17

273.0	9.066667	0.000186	-0.000056	0.815601	0.056179	-0.089915	0.801730	-0.009265	-0.081604	0.432060	-0.049563	0.018048	0.000000	-0.056157	0.089926	0.829484	-0.193912	0.072526	0.452386	-0.033584	0.190073	0.104351	0.029035	-0.002002	1.040276	0.026685	-0.028619	1.306248	-0.108995	-0.063249	1.428842	-0.073988	-0.021141	1.469673	-0.017999	0.083339	1.276557	0.034219	0.168637	1.030113	-0.038461	0.182206	0.792227	0.097480	-0.124044	1.249195	0.162792	-0.088983	1.015101	0.106764	-0.073594	0.730303
274.0	9.100000	0.000185	-0.000059	0.797476	0.053675	-0.087668	0.781378	0.001056	-0.076703	0.428119	-0.030763	0.043007	0.000000	-0.053654	0.087679	0.813582	-0.201970	0.056082	0.449829	-0.094208	0.151506	0.067378	0.030194	-0.001526	1.023021	0.027682	-0.026574	1.289779	-0.109444	-0.061632	1.410163	-0.072191	-0.018950	1.455593	-0.015134	0.085941	1.256073	0.023112	0.168869	1.007416	-0.036547	0.184374	0.770468	0.094614	-0.126595	1.236064	0.154394	-0.105138	1.001196	0.091152	-0.094129	0.721807
275.0	9.133333	0.000191	-0.000058	0.805393	0.053099	-0.083920	0.786076	0.023627	-0.054808	0.421298	0.008831	0.070891	0.000000	-0.053076	0.083932	0.824700	-0.209396	0.060113	0.445319	-0.169644	0.124419	0.046123	0.031638	-0.001345	1.029626	0.030452	-0.025897	1.295748	-0.111469	-0.054043	1.410797	-0.076955	-0.016057	1.456426	-0.007900	0.083644	1.262280	0.033897	0.161588	1.013242	-0.031400	0.170447	0.780179	0.089983	-0.126981	1.242308	0.140943	-0.115590	0.999596	0.067211	-0.112019	0.724258
276.0	9.166667	0.000195	-0.000056	0.814570	0.048351	-0.076854	0.794408	0.038668	-0.029825	0.425239	0.044599	0.093468	0.000000	-0.048332	0.076863	0.834709	-0.190459	0.059904	0.442663	-0.243005	0.093152	0.029737	0.028869	-0.004052	1.039609	0.031637	-0.028588	1.304065	-0.114081	-0.045225	1.416105	-0.084332	-0.013179	1.461370	-0.001022	0.076544	1.270235	0.040307	0.143429	1.018355	-0.021272	0.142279	0.787892	0.083441	-0.129584	1.247526	0.137588	-0.129051	1.004124	0.049096	-0.128465	0.740196
277.0	9.200000	0.000204	-0.000053	0.818889	0.044293	-0.069329	0.800076	0.058022	-0.018591	0.423598	0.085833	0.100957	0.000000	-0.044276	0.069338	0.837677	-0.176392	0.059648	0.440150	-0.308377	0.083203	0.024818	0.028594	-0.005372	1.044701	0.038280	-0.027887	1.310197	-0.113692	-0.038799	1.420108	-0.088702	-0.008751	1.463269	0.008478	0.075043	1.278969	0.049002	0.140105	1.032686	-0.032005	0.129847	0.801088	0.086725	-0.130816	1.253203	0.143973	-0.139239	1.013892	0.039687	-0.136960	0.761953
278.0	9.233333	0.000211	-0.000051	0.815781	0.039993	-0.066184	0.798789	0.074286	-0.010666	0.419003	0.127343	0.111339	0.000000	-0.039976	0.066193	0.832746	-0.167101	0.061879	0.433688	-0.349203	0.089314	0.024993	0.028135	-0.008894	1.044965	0.042343	-0.034183	1.311150	-0.112784	-0.045251	1.418753	-0.090742	-0.018761	1.466971	0.013629	0.069576	1.282142	0.045526	0.135382	1.038886	-0.053701	0.115348	0.802775	0.088301	-0.139495	1.253407	0.146242	-0.151462	1.008463	0.027286	-0.152223	0.770187
279.0	9.266667	0.000220	-0.000049	0.809142	0.037272	-0.068288	0.791852	0.084790	-0.009238	0.410593	0.158716	0.127889	0.000000	-0.037254	0.068298	0.826407	-0.174588	0.072035	0.430312	-0.376529	0.107656	0.025784	0.025544	-0.011341	1.040777	0.040183	-0.035077	1.307574	-0.116343	-0.047120	1.419933	-0.092672	-0.015885	1.466022	0.013316	0.069902	1.281567	0.047151	0.133840	1.028902	-0.038269	0.116605	0.809075	0.083912	-0.144112	1.249851	0.141411	-0.158468	1.004962	0.013301	-0.158424	0.770245
280.0	9.300000	0.000222	-0.000051	0.802806	0.041888	-0.069054	0.783745	0.095942	-0.019079	0.410965	0.192498	0.125845	0.000000	-0.041864	0.069067	0.821839	-0.178256	0.065039	0.431147	-0.370998	0.099980	0.014545	0.027982	-0.006337	1.033396	0.046745	-0.025501	1.301063	-0.110572	-0.041408	1.414743	-0.083904	-0.005924	1.461341	0.018216	0.080123	1.273343	0.053129	0.139803	1.019799	-0.030977	0.118955	0.803146	0.091248	-0.136708	1.244440	0.144186	-0.154614	0.997584	0.013367	-0.159564	0.769689
281.0	9.333333	0.000227	-0.000049	0.797737	0.042100	-0.069209	0.778105	0.109477	-0.007622	0.404197	0.225736	0.151222	0.004611	-0.042074	0.069223	0.817338	-0.178945	0.062893	0.419998	-0.368134	0.106537	0.000000	0.027166	-0.005582	1.028868	0.048313	-0.025026	1.296781	-0.108236	-0.042102	1.411568	-0.088260	-0.008720	1.458160	0.019762	0.080474	1.269987	0.057001	0.139402	1.015858	-0.033175	0.123571	0.803091	0.092903	-0.135954	1.240662	0.142909	-0.148849	0.991829	0.000434	-0.153537	0.766765
282.0	9.366667	0.000235	-0.000049	0.806918	0.045500	-0.073945	0.787445	0.111158	-0.009256	0.414806	0.251738	0.160151	0.023323	-0.045471	0.073961	0.826357	-0.183916	0.062047	0.427739	-0.363289	0.105699	0.000000	0.028198	-0.003453	1.036763	0.051051	-0.023061	1.306162	-0.106363	-0.041264	1.422874	-0.082659	-0.009224	1.469347	0.021306	0.086499	1.278596	0.055091	0.145473	1.028963	-0.043498	0.124833	0.804654	0.096343	-0.137289	1.249523	0.140150	-0.153200	0.996688	-0.002154	-0.161156	0.770359
283.0	9.400000	0.000235	-0.000050	0.819327	0.047848	-0.080710	0.797839	0.103995	-0.013566	0.421819	0.277174	0.168050	0.042572	-0.047818	0.080726	0.840778	-0.180636	0.062966	0.436211	-0.345228	0.106062	0.000000	0.028395	-0.001059	1.047161	0.054101	-0.017199	1.318384	-0.101232	-0.034509	1.432218	-0.075993	-0.005254	1.479398	0.021663	0.094606	1.291395	0.053357	0.153667	1.039386	-0.037694	0.135271	0.814940	0.102577	-0.136161	1.262921	0.150571	-0.152710	1.006487	0.012871	-0.162134	0.780029
284.0	9.433333	0.000240	-0.000049	0.823199	0.048018	-0.084369	0.800653	0.089804	-0.018525	0.422470	0.295686	0.178330	0.062345	-0.047987	0.084386	0.845707	-0.175638	0.069584	0.437589	-0.328750	0.119335	0.000000	0.027159	-0.001392	1.051505	0.051349	-0.014615	1.323542	-0.100673	-0.033352	1.440983	-0.078400	-0.000155	1.486258	0.016292	0.096569	1.296528	0.046389	0.153018	1.042114	-0.055172	0.135977	0.816438	0.103806	-0.134308	1.267683	0.153055	-0.151906	1.009389	0.018074	-0.166162	0.784065
